<mxfile host="app.diagrams.net" modified="2022-03-29T01:17:36.001Z" agent="5.0 (Macintosh; Intel Mac OS X 10_15_7) AppleWebKit/605.1.15 (KHTML, like Gecko) Version/15.2 Safari/605.1.15" etag="Q-9RW0xwdik6Vv7wVYlc" version="17.2.2" type="github">
  <diagram id="C5RBs43oDa-KdzZeNtuy" name="Page-1">
    <mxGraphModel dx="3255" dy="1136" grid="1" gridSize="10" guides="1" tooltips="1" connect="1" arrows="1" fold="1" page="1" pageScale="1" pageWidth="827" pageHeight="1169" math="0" shadow="0">
      <root>
        <mxCell id="WIyWlLk6GJQsqaUBKTNV-0" />
        <mxCell id="WIyWlLk6GJQsqaUBKTNV-1" parent="WIyWlLk6GJQsqaUBKTNV-0" />
        <mxCell id="lrnJ2G7k063MCXL8fDlo-37" value="RequestHandler" style="swimlane;fontStyle=1;align=center;verticalAlign=top;childLayout=stackLayout;horizontal=1;startSize=26;horizontalStack=0;resizeParent=1;resizeParentMax=0;resizeLast=0;collapsible=1;marginBottom=0;" vertex="1" parent="WIyWlLk6GJQsqaUBKTNV-1">
          <mxGeometry x="80" y="40" width="430" height="240" as="geometry" />
        </mxCell>
        <mxCell id="lrnJ2G7k063MCXL8fDlo-39" value="" style="line;strokeWidth=1;fillColor=none;align=left;verticalAlign=middle;spacingTop=-1;spacingLeft=3;spacingRight=3;rotatable=0;labelPosition=right;points=[];portConstraint=eastwest;" vertex="1" parent="lrnJ2G7k063MCXL8fDlo-37">
          <mxGeometry y="26" width="430" height="64" as="geometry" />
        </mxCell>
        <mxCell id="lrnJ2G7k063MCXL8fDlo-40" value="+ getWeather(date: Date, location: Coordinates): Weather&#xa;+ getNearbyAerodromes(location: Coordinates, &#xa;                distance: Number, number: BigInt): Aerodrome&#xa;+ getAirspaceClass(location: Coordinates): AirspaceClass&#xa;+ getFlightSchedule(): Flight[]&#xa;+ getEmergencyContacts(location: Coordinates): EmergencyContact[]&#xa;+ createSite(site name: String, pins: Coordinates[], margin: Number): void&#xa;+ getSites(): Site[]&#xa;+ getFlightLogs(): FlightLog[]" style="text;strokeColor=none;fillColor=none;align=left;verticalAlign=top;spacingLeft=4;spacingRight=4;overflow=hidden;rotatable=0;points=[[0,0.5],[1,0.5]];portConstraint=eastwest;" vertex="1" parent="lrnJ2G7k063MCXL8fDlo-37">
          <mxGeometry y="90" width="430" height="150" as="geometry" />
        </mxCell>
        <mxCell id="lrnJ2G7k063MCXL8fDlo-46" style="edgeStyle=orthogonalEdgeStyle;rounded=0;orthogonalLoop=1;jettySize=auto;html=1;exitX=0.5;exitY=0;exitDx=0;exitDy=0;dashed=1;" edge="1" parent="WIyWlLk6GJQsqaUBKTNV-1" source="lrnJ2G7k063MCXL8fDlo-41">
          <mxGeometry relative="1" as="geometry">
            <mxPoint x="295" y="290" as="targetPoint" />
          </mxGeometry>
        </mxCell>
        <mxCell id="lrnJ2G7k063MCXL8fDlo-41" value="Server" style="swimlane;fontStyle=1;align=center;verticalAlign=top;childLayout=stackLayout;horizontal=1;startSize=26;horizontalStack=0;resizeParent=1;resizeParentMax=0;resizeLast=0;collapsible=1;marginBottom=0;" vertex="1" parent="WIyWlLk6GJQsqaUBKTNV-1">
          <mxGeometry x="120" y="390" width="350" height="240" as="geometry" />
        </mxCell>
        <mxCell id="lrnJ2G7k063MCXL8fDlo-42" value="+ airspaces: Map&lt;AirspaceClass, Airspace[]&gt;&#xa;+ port: BigInt&#xa;+ flightManager: FlightManager&#xa;+ siteManager: SiteManager&#xa;+ flightLogManager: FlightLogManager&#xa;+ flights: Flight[]&#xa;+ sites: Sites[]&#xa;+ logs: FlightLog[]&#xa;+ aerodromes: Aerodromes[]" style="text;strokeColor=none;fillColor=none;align=left;verticalAlign=top;spacingLeft=4;spacingRight=4;overflow=hidden;rotatable=0;points=[[0,0.5],[1,0.5]];portConstraint=eastwest;" vertex="1" parent="lrnJ2G7k063MCXL8fDlo-41">
          <mxGeometry y="26" width="350" height="144" as="geometry" />
        </mxCell>
        <mxCell id="lrnJ2G7k063MCXL8fDlo-43" value="" style="line;strokeWidth=1;fillColor=none;align=left;verticalAlign=middle;spacingTop=-1;spacingLeft=3;spacingRight=3;rotatable=0;labelPosition=right;points=[];portConstraint=eastwest;" vertex="1" parent="lrnJ2G7k063MCXL8fDlo-41">
          <mxGeometry y="170" width="350" height="8" as="geometry" />
        </mxCell>
        <mxCell id="lrnJ2G7k063MCXL8fDlo-44" value="+ static createServer(port: BigInt): Promise&lt;Server&gt;&#xa;+ run(): void&#xa;+ shutdown(): void" style="text;strokeColor=none;fillColor=none;align=left;verticalAlign=top;spacingLeft=4;spacingRight=4;overflow=hidden;rotatable=0;points=[[0,0.5],[1,0.5]];portConstraint=eastwest;" vertex="1" parent="lrnJ2G7k063MCXL8fDlo-41">
          <mxGeometry y="178" width="350" height="62" as="geometry" />
        </mxCell>
        <mxCell id="lrnJ2G7k063MCXL8fDlo-47" value="implements" style="text;html=1;align=center;verticalAlign=middle;resizable=0;points=[];autosize=1;strokeColor=none;fillColor=none;" vertex="1" parent="WIyWlLk6GJQsqaUBKTNV-1">
          <mxGeometry x="300" y="330" width="80" height="20" as="geometry" />
        </mxCell>
        <mxCell id="lrnJ2G7k063MCXL8fDlo-101" style="edgeStyle=none;rounded=0;orthogonalLoop=1;jettySize=auto;html=1;exitX=0.75;exitY=0;exitDx=0;exitDy=0;elbow=vertical;dashed=1;" edge="1" parent="WIyWlLk6GJQsqaUBKTNV-1" source="lrnJ2G7k063MCXL8fDlo-48">
          <mxGeometry relative="1" as="geometry">
            <mxPoint x="910" y="590" as="targetPoint" />
          </mxGeometry>
        </mxCell>
        <mxCell id="lrnJ2G7k063MCXL8fDlo-48" value="SiteManager" style="swimlane;fontStyle=1;align=center;verticalAlign=top;childLayout=stackLayout;horizontal=1;startSize=40;horizontalStack=0;resizeParent=1;resizeParentMax=0;resizeLast=0;collapsible=1;marginBottom=0;" vertex="1" parent="WIyWlLk6GJQsqaUBKTNV-1">
          <mxGeometry x="570" y="810" width="180" height="130" as="geometry" />
        </mxCell>
        <mxCell id="lrnJ2G7k063MCXL8fDlo-49" value="+ dbHelper: DBHelper" style="text;strokeColor=none;fillColor=none;align=left;verticalAlign=top;spacingLeft=4;spacingRight=4;overflow=hidden;rotatable=0;points=[[0,0.5],[1,0.5]];portConstraint=eastwest;" vertex="1" parent="lrnJ2G7k063MCXL8fDlo-48">
          <mxGeometry y="40" width="180" height="26" as="geometry" />
        </mxCell>
        <mxCell id="lrnJ2G7k063MCXL8fDlo-50" value="" style="line;strokeWidth=1;fillColor=none;align=left;verticalAlign=middle;spacingTop=-1;spacingLeft=3;spacingRight=3;rotatable=0;labelPosition=right;points=[];portConstraint=eastwest;" vertex="1" parent="lrnJ2G7k063MCXL8fDlo-48">
          <mxGeometry y="66" width="180" height="8" as="geometry" />
        </mxCell>
        <mxCell id="lrnJ2G7k063MCXL8fDlo-51" value="+ getAllSites(): Site[]&#xa;+ storeSites(sites: Site[]): void" style="text;strokeColor=none;fillColor=none;align=left;verticalAlign=top;spacingLeft=4;spacingRight=4;overflow=hidden;rotatable=0;points=[[0,0.5],[1,0.5]];portConstraint=eastwest;" vertex="1" parent="lrnJ2G7k063MCXL8fDlo-48">
          <mxGeometry y="74" width="180" height="56" as="geometry" />
        </mxCell>
        <mxCell id="lrnJ2G7k063MCXL8fDlo-103" style="edgeStyle=none;rounded=0;orthogonalLoop=1;jettySize=auto;html=1;exitX=0.25;exitY=0;exitDx=0;exitDy=0;dashed=1;elbow=vertical;" edge="1" parent="WIyWlLk6GJQsqaUBKTNV-1" source="lrnJ2G7k063MCXL8fDlo-57">
          <mxGeometry relative="1" as="geometry">
            <mxPoint x="1030" y="590" as="targetPoint" />
          </mxGeometry>
        </mxCell>
        <mxCell id="lrnJ2G7k063MCXL8fDlo-57" value="FlightManager" style="swimlane;fontStyle=1;align=center;verticalAlign=top;childLayout=stackLayout;horizontal=1;startSize=40;horizontalStack=0;resizeParent=1;resizeParentMax=0;resizeLast=0;collapsible=1;marginBottom=0;" vertex="1" parent="WIyWlLk6GJQsqaUBKTNV-1">
          <mxGeometry x="1160" y="813" width="170" height="120" as="geometry" />
        </mxCell>
        <mxCell id="lrnJ2G7k063MCXL8fDlo-58" value="+ dbHelper: DBHelper" style="text;strokeColor=none;fillColor=none;align=left;verticalAlign=top;spacingLeft=4;spacingRight=4;overflow=hidden;rotatable=0;points=[[0,0.5],[1,0.5]];portConstraint=eastwest;" vertex="1" parent="lrnJ2G7k063MCXL8fDlo-57">
          <mxGeometry y="40" width="170" height="26" as="geometry" />
        </mxCell>
        <mxCell id="lrnJ2G7k063MCXL8fDlo-59" value="" style="line;strokeWidth=1;fillColor=none;align=left;verticalAlign=middle;spacingTop=-1;spacingLeft=3;spacingRight=3;rotatable=0;labelPosition=right;points=[];portConstraint=eastwest;" vertex="1" parent="lrnJ2G7k063MCXL8fDlo-57">
          <mxGeometry y="66" width="170" height="8" as="geometry" />
        </mxCell>
        <mxCell id="lrnJ2G7k063MCXL8fDlo-60" value="+ getAllFlights(): Flight[]&#xa;+ storeFlights(flights: Flight[]): void" style="text;strokeColor=none;fillColor=none;align=left;verticalAlign=top;spacingLeft=4;spacingRight=4;overflow=hidden;rotatable=0;points=[[0,0.5],[1,0.5]];portConstraint=eastwest;" vertex="1" parent="lrnJ2G7k063MCXL8fDlo-57">
          <mxGeometry y="74" width="170" height="46" as="geometry" />
        </mxCell>
        <mxCell id="lrnJ2G7k063MCXL8fDlo-102" style="edgeStyle=none;rounded=0;orthogonalLoop=1;jettySize=auto;html=1;exitX=0.5;exitY=0;exitDx=0;exitDy=0;dashed=1;elbow=vertical;" edge="1" parent="WIyWlLk6GJQsqaUBKTNV-1" source="lrnJ2G7k063MCXL8fDlo-63">
          <mxGeometry relative="1" as="geometry">
            <mxPoint x="960" y="590" as="targetPoint" />
          </mxGeometry>
        </mxCell>
        <mxCell id="lrnJ2G7k063MCXL8fDlo-63" value="FlightLogManager" style="swimlane;fontStyle=1;align=center;verticalAlign=top;childLayout=stackLayout;horizontal=1;startSize=40;horizontalStack=0;resizeParent=1;resizeParentMax=0;resizeLast=0;collapsible=1;marginBottom=0;" vertex="1" parent="WIyWlLk6GJQsqaUBKTNV-1">
          <mxGeometry x="820" y="815" width="270" height="120" as="geometry" />
        </mxCell>
        <mxCell id="lrnJ2G7k063MCXL8fDlo-64" value="+ dbHelper: DBHelper" style="text;strokeColor=none;fillColor=none;align=left;verticalAlign=top;spacingLeft=4;spacingRight=4;overflow=hidden;rotatable=0;points=[[0,0.5],[1,0.5]];portConstraint=eastwest;" vertex="1" parent="lrnJ2G7k063MCXL8fDlo-63">
          <mxGeometry y="40" width="270" height="26" as="geometry" />
        </mxCell>
        <mxCell id="lrnJ2G7k063MCXL8fDlo-65" value="" style="line;strokeWidth=1;fillColor=none;align=left;verticalAlign=middle;spacingTop=-1;spacingLeft=3;spacingRight=3;rotatable=0;labelPosition=right;points=[];portConstraint=eastwest;" vertex="1" parent="lrnJ2G7k063MCXL8fDlo-63">
          <mxGeometry y="66" width="270" height="8" as="geometry" />
        </mxCell>
        <mxCell id="lrnJ2G7k063MCXL8fDlo-66" value="+ getAllFlightLogs(): FlightLog[]&#xa;+ storeFlightsLogs(flightLogs: FlightLog[]):void" style="text;strokeColor=none;fillColor=none;align=left;verticalAlign=top;spacingLeft=4;spacingRight=4;overflow=hidden;rotatable=0;points=[[0,0.5],[1,0.5]];portConstraint=eastwest;" vertex="1" parent="lrnJ2G7k063MCXL8fDlo-63">
          <mxGeometry y="74" width="270" height="46" as="geometry" />
        </mxCell>
        <mxCell id="lrnJ2G7k063MCXL8fDlo-81" value="DBHelper" style="swimlane;fontStyle=1;align=center;verticalAlign=top;childLayout=stackLayout;horizontal=1;startSize=26;horizontalStack=0;resizeParent=1;resizeParentMax=0;resizeLast=0;collapsible=1;marginBottom=0;" vertex="1" parent="WIyWlLk6GJQsqaUBKTNV-1">
          <mxGeometry x="1410" y="460" width="260" height="130" as="geometry" />
        </mxCell>
        <mxCell id="lrnJ2G7k063MCXL8fDlo-125" value="+ pathname: String" style="text;html=1;align=center;verticalAlign=middle;resizable=0;points=[];autosize=1;strokeColor=none;fillColor=none;" vertex="1" parent="lrnJ2G7k063MCXL8fDlo-81">
          <mxGeometry y="26" width="260" height="20" as="geometry" />
        </mxCell>
        <mxCell id="lrnJ2G7k063MCXL8fDlo-83" value="" style="line;strokeWidth=1;fillColor=none;align=left;verticalAlign=middle;spacingTop=-1;spacingLeft=3;spacingRight=3;rotatable=0;labelPosition=right;points=[];portConstraint=eastwest;" vertex="1" parent="lrnJ2G7k063MCXL8fDlo-81">
          <mxGeometry y="46" width="260" height="24" as="geometry" />
        </mxCell>
        <mxCell id="lrnJ2G7k063MCXL8fDlo-84" value="+ readFile(fileName: String): String&#xa;+ writeInFile(fileName: String, data: String) : void" style="text;strokeColor=none;fillColor=none;align=left;verticalAlign=top;spacingLeft=4;spacingRight=4;overflow=hidden;rotatable=0;points=[[0,0.5],[1,0.5]];portConstraint=eastwest;" vertex="1" parent="lrnJ2G7k063MCXL8fDlo-81">
          <mxGeometry y="70" width="260" height="60" as="geometry" />
        </mxCell>
        <mxCell id="lrnJ2G7k063MCXL8fDlo-89" value="has, uses" style="text;html=1;align=center;verticalAlign=middle;resizable=0;points=[];autosize=1;strokeColor=none;fillColor=none;" vertex="1" parent="WIyWlLk6GJQsqaUBKTNV-1">
          <mxGeometry x="1220" y="520" width="70" height="20" as="geometry" />
        </mxCell>
        <mxCell id="lrnJ2G7k063MCXL8fDlo-95" value="DataManager" style="swimlane;fontStyle=1;align=center;verticalAlign=top;childLayout=stackLayout;horizontal=1;startSize=26;horizontalStack=0;resizeParent=1;resizeParentMax=0;resizeLast=0;collapsible=1;marginBottom=0;" vertex="1" parent="WIyWlLk6GJQsqaUBKTNV-1">
          <mxGeometry x="860" y="460" width="220" height="120" as="geometry" />
        </mxCell>
        <mxCell id="lrnJ2G7k063MCXL8fDlo-96" value="+ dbHelper: DBHelper" style="text;strokeColor=none;fillColor=none;align=left;verticalAlign=top;spacingLeft=4;spacingRight=4;overflow=hidden;rotatable=0;points=[[0,0.5],[1,0.5]];portConstraint=eastwest;" vertex="1" parent="lrnJ2G7k063MCXL8fDlo-95">
          <mxGeometry y="26" width="220" height="26" as="geometry" />
        </mxCell>
        <mxCell id="lrnJ2G7k063MCXL8fDlo-97" value="" style="line;strokeWidth=1;fillColor=none;align=left;verticalAlign=middle;spacingTop=-1;spacingLeft=3;spacingRight=3;rotatable=0;labelPosition=right;points=[];portConstraint=eastwest;" vertex="1" parent="lrnJ2G7k063MCXL8fDlo-95">
          <mxGeometry y="52" width="220" height="8" as="geometry" />
        </mxCell>
        <mxCell id="lrnJ2G7k063MCXL8fDlo-98" value="+ getAll(): any[]&#xa;+ getFirstN(n: BigInt): Any[]&#xa;+ storeAll(elements: any[]): void" style="text;strokeColor=none;fillColor=none;align=left;verticalAlign=top;spacingLeft=4;spacingRight=4;overflow=hidden;rotatable=0;points=[[0,0.5],[1,0.5]];portConstraint=eastwest;" vertex="1" parent="lrnJ2G7k063MCXL8fDlo-95">
          <mxGeometry y="60" width="220" height="60" as="geometry" />
        </mxCell>
        <mxCell id="lrnJ2G7k063MCXL8fDlo-99" style="edgeStyle=none;rounded=0;orthogonalLoop=1;jettySize=auto;html=1;exitX=1;exitY=0.5;exitDx=0;exitDy=0;elbow=vertical;" edge="1" parent="WIyWlLk6GJQsqaUBKTNV-1" source="lrnJ2G7k063MCXL8fDlo-42">
          <mxGeometry relative="1" as="geometry">
            <mxPoint x="850" y="488.3333333333335" as="targetPoint" />
            <mxPoint x="610" y="488" as="sourcePoint" />
          </mxGeometry>
        </mxCell>
        <mxCell id="lrnJ2G7k063MCXL8fDlo-100" value="has, uses" style="text;html=1;align=center;verticalAlign=middle;resizable=0;points=[];autosize=1;strokeColor=none;fillColor=none;" vertex="1" parent="WIyWlLk6GJQsqaUBKTNV-1">
          <mxGeometry x="707" y="468" width="70" height="20" as="geometry" />
        </mxCell>
        <mxCell id="lrnJ2G7k063MCXL8fDlo-104" value="extends" style="text;html=1;align=center;verticalAlign=middle;resizable=0;points=[];autosize=1;strokeColor=none;fillColor=none;" vertex="1" parent="WIyWlLk6GJQsqaUBKTNV-1">
          <mxGeometry x="720" y="660" width="60" height="20" as="geometry" />
        </mxCell>
        <mxCell id="lrnJ2G7k063MCXL8fDlo-107" value="extends" style="text;html=1;align=center;verticalAlign=middle;resizable=0;points=[];autosize=1;strokeColor=none;fillColor=none;" vertex="1" parent="WIyWlLk6GJQsqaUBKTNV-1">
          <mxGeometry x="880" y="680" width="60" height="20" as="geometry" />
        </mxCell>
        <mxCell id="lrnJ2G7k063MCXL8fDlo-108" value="extends" style="text;html=1;align=center;verticalAlign=middle;resizable=0;points=[];autosize=1;strokeColor=none;fillColor=none;" vertex="1" parent="WIyWlLk6GJQsqaUBKTNV-1">
          <mxGeometry x="1120" y="680" width="60" height="20" as="geometry" />
        </mxCell>
        <mxCell id="lrnJ2G7k063MCXL8fDlo-109" style="edgeStyle=none;rounded=0;orthogonalLoop=1;jettySize=auto;html=1;exitX=1;exitY=0.5;exitDx=0;exitDy=0;elbow=vertical;" edge="1" parent="WIyWlLk6GJQsqaUBKTNV-1" source="lrnJ2G7k063MCXL8fDlo-96">
          <mxGeometry relative="1" as="geometry">
            <mxPoint x="1410" y="500" as="targetPoint" />
            <Array as="points">
              <mxPoint x="1240" y="500" />
            </Array>
          </mxGeometry>
        </mxCell>
        <mxCell id="lrnJ2G7k063MCXL8fDlo-112" value="Classname" style="swimlane;fontStyle=1;align=center;verticalAlign=top;childLayout=stackLayout;horizontal=1;startSize=26;horizontalStack=0;resizeParent=1;resizeParentMax=0;resizeLast=0;collapsible=1;marginBottom=0;" vertex="1" parent="WIyWlLk6GJQsqaUBKTNV-1">
          <mxGeometry x="1950" y="400" width="160" height="86" as="geometry" />
        </mxCell>
        <mxCell id="lrnJ2G7k063MCXL8fDlo-113" value="+ field: type" style="text;strokeColor=none;fillColor=none;align=left;verticalAlign=top;spacingLeft=4;spacingRight=4;overflow=hidden;rotatable=0;points=[[0,0.5],[1,0.5]];portConstraint=eastwest;" vertex="1" parent="lrnJ2G7k063MCXL8fDlo-112">
          <mxGeometry y="26" width="160" height="26" as="geometry" />
        </mxCell>
        <mxCell id="lrnJ2G7k063MCXL8fDlo-114" value="" style="line;strokeWidth=1;fillColor=none;align=left;verticalAlign=middle;spacingTop=-1;spacingLeft=3;spacingRight=3;rotatable=0;labelPosition=right;points=[];portConstraint=eastwest;" vertex="1" parent="lrnJ2G7k063MCXL8fDlo-112">
          <mxGeometry y="52" width="160" height="8" as="geometry" />
        </mxCell>
        <mxCell id="lrnJ2G7k063MCXL8fDlo-115" value="+ method(type): type" style="text;strokeColor=none;fillColor=none;align=left;verticalAlign=top;spacingLeft=4;spacingRight=4;overflow=hidden;rotatable=0;points=[[0,0.5],[1,0.5]];portConstraint=eastwest;" vertex="1" parent="lrnJ2G7k063MCXL8fDlo-112">
          <mxGeometry y="60" width="160" height="26" as="geometry" />
        </mxCell>
        <mxCell id="lrnJ2G7k063MCXL8fDlo-120" style="edgeStyle=none;rounded=0;orthogonalLoop=1;jettySize=auto;html=1;exitX=0.695;exitY=1.041;exitDx=0;exitDy=0;elbow=vertical;exitPerimeter=0;entryX=0.5;entryY=0;entryDx=0;entryDy=0;" edge="1" parent="WIyWlLk6GJQsqaUBKTNV-1" source="lrnJ2G7k063MCXL8fDlo-44" target="lrnJ2G7k063MCXL8fDlo-116">
          <mxGeometry relative="1" as="geometry">
            <mxPoint x="250" y="1110" as="targetPoint" />
          </mxGeometry>
        </mxCell>
        <mxCell id="lrnJ2G7k063MCXL8fDlo-116" value="AirspaceLoader" style="swimlane;fontStyle=1;align=center;verticalAlign=top;childLayout=stackLayout;horizontal=1;startSize=26;horizontalStack=0;resizeParent=1;resizeParentMax=0;resizeLast=0;collapsible=1;marginBottom=0;" vertex="1" parent="WIyWlLk6GJQsqaUBKTNV-1">
          <mxGeometry x="280" y="1210" width="350" height="150" as="geometry" />
        </mxCell>
        <mxCell id="lrnJ2G7k063MCXL8fDlo-117" value="+ filePath: String&#xa;+ encoding: String" style="text;strokeColor=none;fillColor=none;align=left;verticalAlign=top;spacingLeft=4;spacingRight=4;overflow=hidden;rotatable=0;points=[[0,0.5],[1,0.5]];portConstraint=eastwest;" vertex="1" parent="lrnJ2G7k063MCXL8fDlo-116">
          <mxGeometry y="26" width="350" height="44" as="geometry" />
        </mxCell>
        <mxCell id="lrnJ2G7k063MCXL8fDlo-118" value="" style="line;strokeWidth=1;fillColor=none;align=left;verticalAlign=middle;spacingTop=-1;spacingLeft=3;spacingRight=3;rotatable=0;labelPosition=right;points=[];portConstraint=eastwest;" vertex="1" parent="lrnJ2G7k063MCXL8fDlo-116">
          <mxGeometry y="70" width="350" height="8" as="geometry" />
        </mxCell>
        <mxCell id="lrnJ2G7k063MCXL8fDlo-119" value="+ getAllAirspaces(): Promise&lt;Airspace[]&gt;&#xa;+ getAllAirspacesAsynchronous(callback: Airspace{] =&gt; Any)&#xa;+ parsedDMS(dms: String): Angle" style="text;strokeColor=none;fillColor=none;align=left;verticalAlign=top;spacingLeft=4;spacingRight=4;overflow=hidden;rotatable=0;points=[[0,0.5],[1,0.5]];portConstraint=eastwest;" vertex="1" parent="lrnJ2G7k063MCXL8fDlo-116">
          <mxGeometry y="78" width="350" height="72" as="geometry" />
        </mxCell>
        <mxCell id="lrnJ2G7k063MCXL8fDlo-126" style="edgeStyle=none;rounded=0;orthogonalLoop=1;jettySize=auto;html=1;exitX=0.16;exitY=1.041;exitDx=0;exitDy=0;elbow=vertical;exitPerimeter=0;entryX=0.5;entryY=0;entryDx=0;entryDy=0;" edge="1" parent="WIyWlLk6GJQsqaUBKTNV-1" source="lrnJ2G7k063MCXL8fDlo-44" target="lrnJ2G7k063MCXL8fDlo-121">
          <mxGeometry relative="1" as="geometry">
            <mxPoint x="120" y="950" as="targetPoint" />
          </mxGeometry>
        </mxCell>
        <mxCell id="lrnJ2G7k063MCXL8fDlo-121" value="AerodromeLoader" style="swimlane;fontStyle=1;align=center;verticalAlign=top;childLayout=stackLayout;horizontal=1;startSize=26;horizontalStack=0;resizeParent=1;resizeParentMax=0;resizeLast=0;collapsible=1;marginBottom=0;" vertex="1" parent="WIyWlLk6GJQsqaUBKTNV-1">
          <mxGeometry x="-240" y="940" width="350" height="130" as="geometry" />
        </mxCell>
        <mxCell id="lrnJ2G7k063MCXL8fDlo-122" value="+ filePath: String&#xa;+ encoding: String" style="text;strokeColor=none;fillColor=none;align=left;verticalAlign=top;spacingLeft=4;spacingRight=4;overflow=hidden;rotatable=0;points=[[0,0.5],[1,0.5]];portConstraint=eastwest;" vertex="1" parent="lrnJ2G7k063MCXL8fDlo-121">
          <mxGeometry y="26" width="350" height="44" as="geometry" />
        </mxCell>
        <mxCell id="lrnJ2G7k063MCXL8fDlo-123" value="" style="line;strokeWidth=1;fillColor=none;align=left;verticalAlign=middle;spacingTop=-1;spacingLeft=3;spacingRight=3;rotatable=0;labelPosition=right;points=[];portConstraint=eastwest;" vertex="1" parent="lrnJ2G7k063MCXL8fDlo-121">
          <mxGeometry y="70" width="350" height="8" as="geometry" />
        </mxCell>
        <mxCell id="lrnJ2G7k063MCXL8fDlo-124" value="+ getAllAerodromes(): Promise&lt;Airspace[]&gt;&#xa;+ getAllAerodromesAsynchronous(callback: Airspace{] =&gt; Any)" style="text;strokeColor=none;fillColor=none;align=left;verticalAlign=top;spacingLeft=4;spacingRight=4;overflow=hidden;rotatable=0;points=[[0,0.5],[1,0.5]];portConstraint=eastwest;" vertex="1" parent="lrnJ2G7k063MCXL8fDlo-121">
          <mxGeometry y="78" width="350" height="52" as="geometry" />
        </mxCell>
        <mxCell id="lrnJ2G7k063MCXL8fDlo-127" value="WeatherDataLoader" style="swimlane;fontStyle=1;align=center;verticalAlign=top;childLayout=stackLayout;horizontal=1;startSize=26;horizontalStack=0;resizeParent=1;resizeParentMax=0;resizeLast=0;collapsible=1;marginBottom=0;" vertex="1" parent="WIyWlLk6GJQsqaUBKTNV-1">
          <mxGeometry x="-670" y="415" width="430" height="190" as="geometry" />
        </mxCell>
        <mxCell id="lrnJ2G7k063MCXL8fDlo-128" value="+ apiKey: String&#xa;+ coordinates: oordinates" style="text;strokeColor=none;fillColor=none;align=left;verticalAlign=top;spacingLeft=4;spacingRight=4;overflow=hidden;rotatable=0;points=[[0,0.5],[1,0.5]];portConstraint=eastwest;" vertex="1" parent="lrnJ2G7k063MCXL8fDlo-127">
          <mxGeometry y="26" width="430" height="44" as="geometry" />
        </mxCell>
        <mxCell id="lrnJ2G7k063MCXL8fDlo-129" value="" style="line;strokeWidth=1;fillColor=none;align=left;verticalAlign=middle;spacingTop=-1;spacingLeft=3;spacingRight=3;rotatable=0;labelPosition=right;points=[];portConstraint=eastwest;" vertex="1" parent="lrnJ2G7k063MCXL8fDlo-127">
          <mxGeometry y="70" width="430" height="8" as="geometry" />
        </mxCell>
        <mxCell id="lrnJ2G7k063MCXL8fDlo-130" value="+ static withDefaultAppid(coordinates: Coordinates): WeatherDataLoader&#xa;+ getCurrentWeather(): Promise&lt;Weather&gt;&#xa;+ getDailyWeather(): Promise&lt;Weather&gt;&#xa;+ getHourlyWeather(): Promise&lt;Weather&gt;&#xa;+ getWeatherOverTimeWindow(timeWindow: {Date, Date}): Promise&lt;Weather&gt;&#xa;+ getWeatherForDate(date: Date): Promise&lt;Weather&gt;&#xa;" style="text;strokeColor=none;fillColor=none;align=left;verticalAlign=top;spacingLeft=4;spacingRight=4;overflow=hidden;rotatable=0;points=[[0,0.5],[1,0.5]];portConstraint=eastwest;" vertex="1" parent="lrnJ2G7k063MCXL8fDlo-127">
          <mxGeometry y="78" width="430" height="112" as="geometry" />
        </mxCell>
        <mxCell id="lrnJ2G7k063MCXL8fDlo-131" style="edgeStyle=none;rounded=0;orthogonalLoop=1;jettySize=auto;html=1;exitX=0;exitY=0.5;exitDx=0;exitDy=0;entryX=1.023;entryY=-0.042;entryDx=0;entryDy=0;entryPerimeter=0;elbow=vertical;" edge="1" parent="WIyWlLk6GJQsqaUBKTNV-1" source="lrnJ2G7k063MCXL8fDlo-42" target="lrnJ2G7k063MCXL8fDlo-130">
          <mxGeometry relative="1" as="geometry" />
        </mxCell>
        <mxCell id="lrnJ2G7k063MCXL8fDlo-132" value="Aerodrome" style="swimlane;fontStyle=1;align=center;verticalAlign=top;childLayout=stackLayout;horizontal=1;startSize=26;horizontalStack=0;resizeParent=1;resizeParentMax=0;resizeLast=0;collapsible=1;marginBottom=0;" vertex="1" parent="WIyWlLk6GJQsqaUBKTNV-1">
          <mxGeometry x="370" y="1640" width="330" height="160" as="geometry" />
        </mxCell>
        <mxCell id="lrnJ2G7k063MCXL8fDlo-133" value="+ type: AerodromeType&#xa;+ name: String&#xa;+ location: Coordinates" style="text;strokeColor=none;fillColor=none;align=left;verticalAlign=top;spacingLeft=4;spacingRight=4;overflow=hidden;rotatable=0;points=[[0,0.5],[1,0.5]];portConstraint=eastwest;" vertex="1" parent="lrnJ2G7k063MCXL8fDlo-132">
          <mxGeometry y="26" width="330" height="74" as="geometry" />
        </mxCell>
        <mxCell id="lrnJ2G7k063MCXL8fDlo-134" value="" style="line;strokeWidth=1;fillColor=none;align=left;verticalAlign=middle;spacingTop=-1;spacingLeft=3;spacingRight=3;rotatable=0;labelPosition=right;points=[];portConstraint=eastwest;" vertex="1" parent="lrnJ2G7k063MCXL8fDlo-132">
          <mxGeometry y="100" width="330" height="8" as="geometry" />
        </mxCell>
        <mxCell id="lrnJ2G7k063MCXL8fDlo-135" value="+ distanceTo(location: Coordinates): Number&#xa;+ getters" style="text;strokeColor=none;fillColor=none;align=left;verticalAlign=top;spacingLeft=4;spacingRight=4;overflow=hidden;rotatable=0;points=[[0,0.5],[1,0.5]];portConstraint=eastwest;" vertex="1" parent="lrnJ2G7k063MCXL8fDlo-132">
          <mxGeometry y="108" width="330" height="52" as="geometry" />
        </mxCell>
        <mxCell id="lrnJ2G7k063MCXL8fDlo-136" value="Airspace" style="swimlane;fontStyle=1;align=center;verticalAlign=top;childLayout=stackLayout;horizontal=1;startSize=26;horizontalStack=0;resizeParent=1;resizeParentMax=0;resizeLast=0;collapsible=1;marginBottom=0;" vertex="1" parent="WIyWlLk6GJQsqaUBKTNV-1">
          <mxGeometry x="-170" y="1616" width="370" height="208" as="geometry" />
        </mxCell>
        <mxCell id="lrnJ2G7k063MCXL8fDlo-137" value="+ name: String&#xa;+ airspaceClass: AirspaceClass&#xa;+ shapes: Geographical2DShapes&#xa;+ lowAltitude: Number&#xa;+lowAltitude: Number" style="text;strokeColor=none;fillColor=none;align=left;verticalAlign=top;spacingLeft=4;spacingRight=4;overflow=hidden;rotatable=0;points=[[0,0.5],[1,0.5]];portConstraint=eastwest;" vertex="1" parent="lrnJ2G7k063MCXL8fDlo-136">
          <mxGeometry y="26" width="370" height="84" as="geometry" />
        </mxCell>
        <mxCell id="lrnJ2G7k063MCXL8fDlo-138" value="" style="line;strokeWidth=1;fillColor=none;align=left;verticalAlign=middle;spacingTop=-1;spacingLeft=3;spacingRight=3;rotatable=0;labelPosition=right;points=[];portConstraint=eastwest;" vertex="1" parent="lrnJ2G7k063MCXL8fDlo-136">
          <mxGeometry y="110" width="370" height="38" as="geometry" />
        </mxCell>
        <mxCell id="lrnJ2G7k063MCXL8fDlo-139" value="+ contains(location: Coordinates, altitude: Number): Boolean&#xa;+ equals(other: Airspace): Boolean" style="text;strokeColor=none;fillColor=none;align=left;verticalAlign=top;spacingLeft=4;spacingRight=4;overflow=hidden;rotatable=0;points=[[0,0.5],[1,0.5]];portConstraint=eastwest;" vertex="1" parent="lrnJ2G7k063MCXL8fDlo-136">
          <mxGeometry y="148" width="370" height="60" as="geometry" />
        </mxCell>
        <mxCell id="lrnJ2G7k063MCXL8fDlo-140" value="AirspaceClass" style="swimlane;fontStyle=1;align=center;verticalAlign=top;childLayout=stackLayout;horizontal=1;startSize=26;horizontalStack=0;resizeParent=1;resizeParentMax=0;resizeLast=0;collapsible=1;marginBottom=0;" vertex="1" parent="WIyWlLk6GJQsqaUBKTNV-1">
          <mxGeometry x="-160" y="2040" width="340" height="150" as="geometry" />
        </mxCell>
        <mxCell id="lrnJ2G7k063MCXL8fDlo-141" value="+ enum: {A, B, C, D, E, F, G, R, Q}&#xa;+ letter: String" style="text;strokeColor=none;fillColor=none;align=left;verticalAlign=top;spacingLeft=4;spacingRight=4;overflow=hidden;rotatable=0;points=[[0,0.5],[1,0.5]];portConstraint=eastwest;" vertex="1" parent="lrnJ2G7k063MCXL8fDlo-140">
          <mxGeometry y="26" width="340" height="44" as="geometry" />
        </mxCell>
        <mxCell id="lrnJ2G7k063MCXL8fDlo-142" value="" style="line;strokeWidth=1;fillColor=none;align=left;verticalAlign=middle;spacingTop=-1;spacingLeft=3;spacingRight=3;rotatable=0;labelPosition=right;points=[];portConstraint=eastwest;" vertex="1" parent="lrnJ2G7k063MCXL8fDlo-140">
          <mxGeometry y="70" width="340" height="8" as="geometry" />
        </mxCell>
        <mxCell id="lrnJ2G7k063MCXL8fDlo-143" value="+ values(): AirspaceClass[]&#xa;+ parse(letter: String): AirspaceClass&#xa;+ compare(other: AirspaceClass): Integer" style="text;strokeColor=none;fillColor=none;align=left;verticalAlign=top;spacingLeft=4;spacingRight=4;overflow=hidden;rotatable=0;points=[[0,0.5],[1,0.5]];portConstraint=eastwest;" vertex="1" parent="lrnJ2G7k063MCXL8fDlo-140">
          <mxGeometry y="78" width="340" height="72" as="geometry" />
        </mxCell>
        <mxCell id="lrnJ2G7k063MCXL8fDlo-144" value="AirspaceBuilder" style="swimlane;fontStyle=1;align=center;verticalAlign=top;childLayout=stackLayout;horizontal=1;startSize=26;horizontalStack=0;resizeParent=1;resizeParentMax=0;resizeLast=0;collapsible=1;marginBottom=0;" vertex="1" parent="WIyWlLk6GJQsqaUBKTNV-1">
          <mxGeometry x="-720" y="1870" width="380" height="150" as="geometry" />
        </mxCell>
        <mxCell id="lrnJ2G7k063MCXL8fDlo-145" value="+ name: String&#xa;+ airspaceClass: AirspaceClass&#xa;+ shapes: Geographical2DShapes&#xa;+ lowAltitude: Number&#xa;+ lowAltitude: Number" style="text;strokeColor=none;fillColor=none;align=left;verticalAlign=top;spacingLeft=4;spacingRight=4;overflow=hidden;rotatable=0;points=[[0,0.5],[1,0.5]];portConstraint=eastwest;" vertex="1" parent="lrnJ2G7k063MCXL8fDlo-144">
          <mxGeometry y="26" width="380" height="84" as="geometry" />
        </mxCell>
        <mxCell id="lrnJ2G7k063MCXL8fDlo-146" value="" style="line;strokeWidth=1;fillColor=none;align=left;verticalAlign=middle;spacingTop=-1;spacingLeft=3;spacingRight=3;rotatable=0;labelPosition=right;points=[];portConstraint=eastwest;" vertex="1" parent="lrnJ2G7k063MCXL8fDlo-144">
          <mxGeometry y="110" width="380" height="8" as="geometry" />
        </mxCell>
        <mxCell id="lrnJ2G7k063MCXL8fDlo-147" value="+ appendShape(shape: Geographical2DShape): AirspaceBuilder&#xa;" style="text;strokeColor=none;fillColor=none;align=left;verticalAlign=top;spacingLeft=4;spacingRight=4;overflow=hidden;rotatable=0;points=[[0,0.5],[1,0.5]];portConstraint=eastwest;" vertex="1" parent="lrnJ2G7k063MCXL8fDlo-144">
          <mxGeometry y="118" width="380" height="32" as="geometry" />
        </mxCell>
        <mxCell id="lrnJ2G7k063MCXL8fDlo-148" value="ResetableBuilder&lt;T&gt;" style="swimlane;fontStyle=1;align=center;verticalAlign=top;childLayout=stackLayout;horizontal=1;startSize=26;horizontalStack=0;resizeParent=1;resizeParentMax=0;resizeLast=0;collapsible=1;marginBottom=0;" vertex="1" parent="WIyWlLk6GJQsqaUBKTNV-1">
          <mxGeometry x="-1110" y="1500" width="225" height="140" as="geometry" />
        </mxCell>
        <mxCell id="lrnJ2G7k063MCXL8fDlo-149" value="interface" style="text;strokeColor=none;fillColor=none;align=left;verticalAlign=top;spacingLeft=4;spacingRight=4;overflow=hidden;rotatable=0;points=[[0,0.5],[1,0.5]];portConstraint=eastwest;" vertex="1" parent="lrnJ2G7k063MCXL8fDlo-148">
          <mxGeometry y="26" width="225" height="26" as="geometry" />
        </mxCell>
        <mxCell id="lrnJ2G7k063MCXL8fDlo-150" value="" style="line;strokeWidth=1;fillColor=none;align=left;verticalAlign=middle;spacingTop=-1;spacingLeft=3;spacingRight=3;rotatable=0;labelPosition=right;points=[];portConstraint=eastwest;" vertex="1" parent="lrnJ2G7k063MCXL8fDlo-148">
          <mxGeometry y="52" width="225" height="8" as="geometry" />
        </mxCell>
        <mxCell id="lrnJ2G7k063MCXL8fDlo-151" value="+ build(): T&#xa;+ reset(): void&#xa;+ buildAndReset(): T&#xa;+ readyToBuild(): Boolean" style="text;strokeColor=none;fillColor=none;align=left;verticalAlign=top;spacingLeft=4;spacingRight=4;overflow=hidden;rotatable=0;points=[[0,0.5],[1,0.5]];portConstraint=eastwest;" vertex="1" parent="lrnJ2G7k063MCXL8fDlo-148">
          <mxGeometry y="60" width="225" height="80" as="geometry" />
        </mxCell>
        <mxCell id="lrnJ2G7k063MCXL8fDlo-152" value="PolygonBuilder" style="swimlane;fontStyle=1;align=center;verticalAlign=top;childLayout=stackLayout;horizontal=1;startSize=26;horizontalStack=0;resizeParent=1;resizeParentMax=0;resizeLast=0;collapsible=1;marginBottom=0;" vertex="1" parent="WIyWlLk6GJQsqaUBKTNV-1">
          <mxGeometry x="-1180" y="1870" width="280" height="110" as="geometry" />
        </mxCell>
        <mxCell id="lrnJ2G7k063MCXL8fDlo-153" value="+ vertices: Coordinates[]" style="text;strokeColor=none;fillColor=none;align=left;verticalAlign=top;spacingLeft=4;spacingRight=4;overflow=hidden;rotatable=0;points=[[0,0.5],[1,0.5]];portConstraint=eastwest;" vertex="1" parent="lrnJ2G7k063MCXL8fDlo-152">
          <mxGeometry y="26" width="280" height="44" as="geometry" />
        </mxCell>
        <mxCell id="lrnJ2G7k063MCXL8fDlo-154" value="" style="line;strokeWidth=1;fillColor=none;align=left;verticalAlign=middle;spacingTop=-1;spacingLeft=3;spacingRight=3;rotatable=0;labelPosition=right;points=[];portConstraint=eastwest;" vertex="1" parent="lrnJ2G7k063MCXL8fDlo-152">
          <mxGeometry y="70" width="280" height="8" as="geometry" />
        </mxCell>
        <mxCell id="lrnJ2G7k063MCXL8fDlo-155" value="+ append(vertex: Coordinates): PolygonBuilder&#xa;" style="text;strokeColor=none;fillColor=none;align=left;verticalAlign=top;spacingLeft=4;spacingRight=4;overflow=hidden;rotatable=0;points=[[0,0.5],[1,0.5]];portConstraint=eastwest;" vertex="1" parent="lrnJ2G7k063MCXL8fDlo-152">
          <mxGeometry y="78" width="280" height="32" as="geometry" />
        </mxCell>
        <mxCell id="lrnJ2G7k063MCXL8fDlo-156" value="CircleBuilder" style="swimlane;fontStyle=1;align=center;verticalAlign=top;childLayout=stackLayout;horizontal=1;startSize=26;horizontalStack=0;resizeParent=1;resizeParentMax=0;resizeLast=0;collapsible=1;marginBottom=0;" vertex="1" parent="WIyWlLk6GJQsqaUBKTNV-1">
          <mxGeometry x="-1670" y="1870" width="330" height="210" as="geometry" />
        </mxCell>
        <mxCell id="lrnJ2G7k063MCXL8fDlo-157" value="+ radius: Number&#xa;+ center: Coordinates&#xa;+ rotation: Integer {-1, 0, 1}&#xa;+ startPoint: Coordinates&#xa;+ endPoint: Coordinates" style="text;strokeColor=none;fillColor=none;align=left;verticalAlign=top;spacingLeft=4;spacingRight=4;overflow=hidden;rotatable=0;points=[[0,0.5],[1,0.5]];portConstraint=eastwest;" vertex="1" parent="lrnJ2G7k063MCXL8fDlo-156">
          <mxGeometry y="26" width="330" height="84" as="geometry" />
        </mxCell>
        <mxCell id="lrnJ2G7k063MCXL8fDlo-158" value="" style="line;strokeWidth=1;fillColor=none;align=left;verticalAlign=middle;spacingTop=-1;spacingLeft=3;spacingRight=3;rotatable=0;labelPosition=right;points=[];portConstraint=eastwest;" vertex="1" parent="lrnJ2G7k063MCXL8fDlo-156">
          <mxGeometry y="110" width="330" height="8" as="geometry" />
        </mxCell>
        <mxCell id="lrnJ2G7k063MCXL8fDlo-159" value="+ set center(value: Coordinates): CircleBuilder&#xa;+ set radius(value: Number): CircleBuilder&#xa;+ set rotation(value: Integer): CircleBuilder&#xa;+ set startPoint(value: Coordinates): CircleBuilder&#xa;+ endPoint(value: Coordinates): CircleBuilder" style="text;strokeColor=none;fillColor=none;align=left;verticalAlign=top;spacingLeft=4;spacingRight=4;overflow=hidden;rotatable=0;points=[[0,0.5],[1,0.5]];portConstraint=eastwest;" vertex="1" parent="lrnJ2G7k063MCXL8fDlo-156">
          <mxGeometry y="118" width="330" height="92" as="geometry" />
        </mxCell>
        <mxCell id="lrnJ2G7k063MCXL8fDlo-160" value="Geographical2DShape" style="swimlane;fontStyle=1;align=center;verticalAlign=top;childLayout=stackLayout;horizontal=1;startSize=26;horizontalStack=0;resizeParent=1;resizeParentMax=0;resizeLast=0;collapsible=1;marginBottom=0;" vertex="1" parent="WIyWlLk6GJQsqaUBKTNV-1">
          <mxGeometry x="-1390" y="2580" width="300" height="110" as="geometry" />
        </mxCell>
        <mxCell id="lrnJ2G7k063MCXL8fDlo-161" value="interface" style="text;strokeColor=none;fillColor=none;align=left;verticalAlign=top;spacingLeft=4;spacingRight=4;overflow=hidden;rotatable=0;points=[[0,0.5],[1,0.5]];portConstraint=eastwest;" vertex="1" parent="lrnJ2G7k063MCXL8fDlo-160">
          <mxGeometry y="26" width="300" height="26" as="geometry" />
        </mxCell>
        <mxCell id="lrnJ2G7k063MCXL8fDlo-162" value="" style="line;strokeWidth=1;fillColor=none;align=left;verticalAlign=middle;spacingTop=-1;spacingLeft=3;spacingRight=3;rotatable=0;labelPosition=right;points=[];portConstraint=eastwest;" vertex="1" parent="lrnJ2G7k063MCXL8fDlo-160">
          <mxGeometry y="52" width="300" height="8" as="geometry" />
        </mxCell>
        <mxCell id="lrnJ2G7k063MCXL8fDlo-163" value="+ contains(location: Coordinates): Boolean&#xa;+ equals(other: Geographical2DShape): Boolean" style="text;strokeColor=none;fillColor=none;align=left;verticalAlign=top;spacingLeft=4;spacingRight=4;overflow=hidden;rotatable=0;points=[[0,0.5],[1,0.5]];portConstraint=eastwest;" vertex="1" parent="lrnJ2G7k063MCXL8fDlo-160">
          <mxGeometry y="60" width="300" height="50" as="geometry" />
        </mxCell>
        <mxCell id="lrnJ2G7k063MCXL8fDlo-164" value="Polygon" style="swimlane;fontStyle=1;align=center;verticalAlign=top;childLayout=stackLayout;horizontal=1;startSize=26;horizontalStack=0;resizeParent=1;resizeParentMax=0;resizeLast=0;collapsible=1;marginBottom=0;" vertex="1" parent="WIyWlLk6GJQsqaUBKTNV-1">
          <mxGeometry x="-1120" y="2180" width="280" height="110" as="geometry" />
        </mxCell>
        <mxCell id="lrnJ2G7k063MCXL8fDlo-165" value="+ vertices: Coordinates[]" style="text;strokeColor=none;fillColor=none;align=left;verticalAlign=top;spacingLeft=4;spacingRight=4;overflow=hidden;rotatable=0;points=[[0,0.5],[1,0.5]];portConstraint=eastwest;" vertex="1" parent="lrnJ2G7k063MCXL8fDlo-164">
          <mxGeometry y="26" width="280" height="26" as="geometry" />
        </mxCell>
        <mxCell id="lrnJ2G7k063MCXL8fDlo-166" value="" style="line;strokeWidth=1;fillColor=none;align=left;verticalAlign=middle;spacingTop=-1;spacingLeft=3;spacingRight=3;rotatable=0;labelPosition=right;points=[];portConstraint=eastwest;" vertex="1" parent="lrnJ2G7k063MCXL8fDlo-164">
          <mxGeometry y="52" width="280" height="8" as="geometry" />
        </mxCell>
        <mxCell id="lrnJ2G7k063MCXL8fDlo-167" value="+ contains(location: Coordinates): Boolean&#xa;+ equals(other: Polygon): Boolean" style="text;strokeColor=none;fillColor=none;align=left;verticalAlign=top;spacingLeft=4;spacingRight=4;overflow=hidden;rotatable=0;points=[[0,0.5],[1,0.5]];portConstraint=eastwest;" vertex="1" parent="lrnJ2G7k063MCXL8fDlo-164">
          <mxGeometry y="60" width="280" height="50" as="geometry" />
        </mxCell>
        <mxCell id="lrnJ2G7k063MCXL8fDlo-168" value="Circle" style="swimlane;fontStyle=1;align=center;verticalAlign=top;childLayout=stackLayout;horizontal=1;startSize=26;horizontalStack=0;resizeParent=1;resizeParentMax=0;resizeLast=0;collapsible=1;marginBottom=0;" vertex="1" parent="WIyWlLk6GJQsqaUBKTNV-1">
          <mxGeometry x="-1654" y="2230" width="330" height="180" as="geometry" />
        </mxCell>
        <mxCell id="lrnJ2G7k063MCXL8fDlo-169" value="+ radius: Number&#xa;+ center: Coordinates&#xa;+ rotation: Integer {-1, 0, 1}&#xa;+ startPoint: Coordinates&#xa;+ endPoint: Coordinates" style="text;strokeColor=none;fillColor=none;align=left;verticalAlign=top;spacingLeft=4;spacingRight=4;overflow=hidden;rotatable=0;points=[[0,0.5],[1,0.5]];portConstraint=eastwest;" vertex="1" parent="lrnJ2G7k063MCXL8fDlo-168">
          <mxGeometry y="26" width="330" height="84" as="geometry" />
        </mxCell>
        <mxCell id="lrnJ2G7k063MCXL8fDlo-170" value="" style="line;strokeWidth=1;fillColor=none;align=left;verticalAlign=middle;spacingTop=-1;spacingLeft=3;spacingRight=3;rotatable=0;labelPosition=right;points=[];portConstraint=eastwest;" vertex="1" parent="lrnJ2G7k063MCXL8fDlo-168">
          <mxGeometry y="110" width="330" height="8" as="geometry" />
        </mxCell>
        <mxCell id="lrnJ2G7k063MCXL8fDlo-171" value="+ static of(center: Coordinates, radius: Number): Circle&#xa;+ contains(location: Coordinates): Boolean&#xa;+ equals(other: Circle): Boolean" style="text;strokeColor=none;fillColor=none;align=left;verticalAlign=top;spacingLeft=4;spacingRight=4;overflow=hidden;rotatable=0;points=[[0,0.5],[1,0.5]];portConstraint=eastwest;" vertex="1" parent="lrnJ2G7k063MCXL8fDlo-168">
          <mxGeometry y="118" width="330" height="62" as="geometry" />
        </mxCell>
        <mxCell id="lrnJ2G7k063MCXL8fDlo-172" value="CartesianCoordinates" style="swimlane;fontStyle=1;align=center;verticalAlign=top;childLayout=stackLayout;horizontal=1;startSize=26;horizontalStack=0;resizeParent=1;resizeParentMax=0;resizeLast=0;collapsible=1;marginBottom=0;" vertex="1" parent="WIyWlLk6GJQsqaUBKTNV-1">
          <mxGeometry x="-2090" y="2120" width="280" height="170" as="geometry" />
        </mxCell>
        <mxCell id="lrnJ2G7k063MCXL8fDlo-173" value="+ x: Number&#xa;+ y: Number" style="text;strokeColor=none;fillColor=none;align=left;verticalAlign=top;spacingLeft=4;spacingRight=4;overflow=hidden;rotatable=0;points=[[0,0.5],[1,0.5]];portConstraint=eastwest;" vertex="1" parent="lrnJ2G7k063MCXL8fDlo-172">
          <mxGeometry y="26" width="280" height="34" as="geometry" />
        </mxCell>
        <mxCell id="lrnJ2G7k063MCXL8fDlo-174" value="" style="line;strokeWidth=1;fillColor=none;align=left;verticalAlign=middle;spacingTop=-1;spacingLeft=3;spacingRight=3;rotatable=0;labelPosition=right;points=[];portConstraint=eastwest;" vertex="1" parent="lrnJ2G7k063MCXL8fDlo-172">
          <mxGeometry y="60" width="280" height="8" as="geometry" />
        </mxCell>
        <mxCell id="lrnJ2G7k063MCXL8fDlo-175" value="+ static of(x: Number, y: Number): CartesianCoordinates&#xa;+ subtract(other: CartesianCoordinates): CartesianCoordinates&#xa;+ crossProduct(other: CartesianCoordinates): Number&#xa;+ dotProduct(other: CartesianCoordinates): Number&#xa;+ liesOnEdge(edgeStart: CartesianCoordinates, &#xa;        edgeEnd: CartesianCoordinates): Boolean&#xa; " style="text;strokeColor=none;fillColor=none;align=left;verticalAlign=top;spacingLeft=4;spacingRight=4;overflow=hidden;rotatable=0;points=[[0,0.5],[1,0.5]];portConstraint=eastwest;" vertex="1" parent="lrnJ2G7k063MCXL8fDlo-172">
          <mxGeometry y="68" width="280" height="102" as="geometry" />
        </mxCell>
      </root>
    </mxGraphModel>
  </diagram>
</mxfile>
